<?xml version="1.0" encoding="UTF-8" standalone="no"?>
<!DOCTYPE svg PUBLIC "-//W3C//DTD SVG 1.1//EN"
 "http://www.w3.org/Graphics/SVG/1.1/DTD/svg11.dtd">
<!-- Generated by graphviz version 2.47.0 (20210316.0004)
 -->
<!-- Title: dependencies Pages: 1 -->
<svg width="504pt" height="211pt"
 viewBox="0.00 0.00 504.00 211.00" xmlns="http://www.w3.org/2000/svg" xmlns:xlink="http://www.w3.org/1999/xlink">
<g id="graph0" class="graph" transform="scale(1 1) rotate(0) translate(4 207)">
<title>dependencies</title>
<polygon fill="white" stroke="transparent" points="-4,4 -4,-207 500,-207 500,4 -4,4"/>
<text text-anchor="start" x="227.01" y="-42.4" font-family="Times-12" font-weight="bold" font-size="14.00">Legend</text>
<polygon fill="#ffffb3" stroke="transparent" points="14,-10 14,-30 34,-30 34,-10 14,-10"/>
<text text-anchor="start" x="37.63" y="-15.4" font-family="Times-12" font-size="14.00"> &#160;Declarations</text>
<polygon fill="#8dd3c7" stroke="transparent" points="127,-10 127,-30 147,-30 147,-10 127,-10"/>
<text text-anchor="start" x="150.73" y="-15.4" font-family="Times-12" font-size="14.00"> &#160;Module</text>
<polygon fill="#80b1d3" stroke="transparent" points="213,-10 213,-30 233,-30 233,-10 213,-10"/>
<text text-anchor="start" x="236.78" y="-15.4" font-family="Times-12" font-size="14.00"> &#160;Bootstrap</text>
<polygon fill="#fdb462" stroke="transparent" points="310,-10 310,-30 330,-30 330,-10 310,-10"/>
<text text-anchor="start" x="333.67" y="-15.4" font-family="Times-12" font-size="14.00"> &#160;Providers</text>
<polygon fill="#fb8072" stroke="transparent" points="406,-10 406,-30 426,-30 426,-10 406,-10"/>
<text text-anchor="start" x="429.73" y="-15.4" font-family="Times-12" font-size="14.00"> &#160;Exports</text>
<g id="clust1" class="cluster">
<title>cluster_TasksModule</title>
<polygon fill="none" stroke="black" stroke-dasharray="1,5" points="60.5,-70 60.5,-195 435.5,-195 435.5,-70 60.5,-70"/>
</g>
<g id="clust6" class="cluster">
<title>cluster_TasksModule_providers</title>
<polygon fill="none" stroke="black" points="68.5,-78 68.5,-130 427.5,-130 427.5,-78 68.5,-78"/>
</g>
<!-- ReadTodoService -->
<g id="node1" class="node">
<title>ReadTodoService</title>
<ellipse fill="#fdb462" stroke="black" cx="339.5" cy="-104" rx="80.44" ry="18"/>
<text text-anchor="middle" x="339.5" y="-99.8" font-family="Times,serif" font-size="14.00">ReadTodoService</text>
</g>
<!-- TasksModule -->
<g id="node3" class="node">
<title>TasksModule</title>
<polygon fill="#8dd3c7" stroke="black" points="294.71,-187 291.71,-191 270.71,-191 267.71,-187 202.29,-187 202.29,-151 294.71,-151 294.71,-187"/>
<text text-anchor="middle" x="248.5" y="-164.8" font-family="Times,serif" font-size="14.00">TasksModule</text>
</g>
<!-- ReadTodoService&#45;&gt;TasksModule -->
<g id="edge1" class="edge">
<title>ReadTodoService&#45;&gt;TasksModule</title>
<path fill="none" stroke="black" d="M276.94,-115.32C276.94,-115.32 276.94,-140.94 276.94,-140.94"/>
<polygon fill="black" stroke="black" points="273.44,-140.94 276.94,-150.94 280.44,-140.94 273.44,-140.94"/>
</g>
<!-- WriteTodoService -->
<g id="node2" class="node">
<title>WriteTodoService</title>
<ellipse fill="#fdb462" stroke="black" cx="158.5" cy="-104" rx="82.22" ry="18"/>
<text text-anchor="middle" x="158.5" y="-99.8" font-family="Times,serif" font-size="14.00">WriteTodoService</text>
</g>
<!-- WriteTodoService&#45;&gt;TasksModule -->
<g id="edge2" class="edge">
<title>WriteTodoService&#45;&gt;TasksModule</title>
<path fill="none" stroke="black" d="M221.63,-115.62C221.63,-115.62 221.63,-140.85 221.63,-140.85"/>
<polygon fill="black" stroke="black" points="218.13,-140.85 221.63,-150.85 225.13,-140.85 218.13,-140.85"/>
</g>
</g>
</svg>
