<?xml version="1.0" encoding="UTF-8" standalone="no"?>
<!DOCTYPE svg PUBLIC "-//W3C//DTD SVG 1.1//EN"
 "http://www.w3.org/Graphics/SVG/1.1/DTD/svg11.dtd">
<!-- Generated by graphviz version 2.47.0 (20210316.0004)
 -->
<!-- Title: dependencies Pages: 1 -->
<svg width="744pt" height="287pt"
 viewBox="0.00 0.00 744.00 287.00" xmlns="http://www.w3.org/2000/svg" xmlns:xlink="http://www.w3.org/1999/xlink">
<g id="graph0" class="graph" transform="scale(1 1) rotate(0) translate(4 283)">
<title>dependencies</title>
<polygon fill="white" stroke="transparent" points="-4,4 -4,-283 740,-283 740,4 -4,4"/>
<text text-anchor="start" x="347.01" y="-42.4" font-family="Times-12" font-weight="bold" font-size="14.00">Legend</text>
<polygon fill="#ffffb3" stroke="transparent" points="134,-10 134,-30 154,-30 154,-10 134,-10"/>
<text text-anchor="start" x="157.63" y="-15.4" font-family="Times-12" font-size="14.00"> &#160;Declarations</text>
<polygon fill="#8dd3c7" stroke="transparent" points="247,-10 247,-30 267,-30 267,-10 247,-10"/>
<text text-anchor="start" x="270.73" y="-15.4" font-family="Times-12" font-size="14.00"> &#160;Module</text>
<polygon fill="#80b1d3" stroke="transparent" points="333,-10 333,-30 353,-30 353,-10 333,-10"/>
<text text-anchor="start" x="356.78" y="-15.4" font-family="Times-12" font-size="14.00"> &#160;Bootstrap</text>
<polygon fill="#fdb462" stroke="transparent" points="430,-10 430,-30 450,-30 450,-10 430,-10"/>
<text text-anchor="start" x="453.67" y="-15.4" font-family="Times-12" font-size="14.00"> &#160;Providers</text>
<polygon fill="#fb8072" stroke="transparent" points="526,-10 526,-30 546,-30 546,-10 526,-10"/>
<text text-anchor="start" x="549.73" y="-15.4" font-family="Times-12" font-size="14.00"> &#160;Exports</text>
<g id="clust7" class="cluster">
<title>cluster_AppModule</title>
<polygon fill="none" stroke="black" stroke-dasharray="1,5" points="85,-146 85,-271 728,-271 728,-146 85,-146"/>
</g>
<g id="clust9" class="cluster">
<title>cluster_AppModule_imports</title>
<polygon fill="none" stroke="black" points="93,-154 93,-206 720,-206 720,-154 93,-154"/>
</g>
<g id="clust19" class="cluster">
<title>cluster_TasksModule</title>
<polygon fill="none" stroke="black" stroke-dasharray="1,5" points="8,-70 8,-138 383,-138 383,-70 8,-70"/>
</g>
<g id="clust24" class="cluster">
<title>cluster_TasksModule_providers</title>
<polygon fill="none" stroke="black" points="16,-78 16,-130 375,-130 375,-78 16,-78"/>
</g>
<g id="clust25" class="cluster">
<title>cluster_UsersModule</title>
<polygon fill="none" stroke="black" stroke-dasharray="1,5" points="391,-70 391,-138 587,-138 587,-70 391,-70"/>
</g>
<g id="clust30" class="cluster">
<title>cluster_UsersModule_providers</title>
<polygon fill="none" stroke="black" points="399,-78 399,-130 579,-130 579,-78 399,-78"/>
</g>
<!-- AppConfigModule -->
<g id="node1" class="node">
<title>AppConfigModule</title>
<polygon fill="#8dd3c7" stroke="black" points="712.05,-198 709.05,-202 688.05,-202 685.05,-198 589.95,-198 589.95,-162 712.05,-162 712.05,-198"/>
<text text-anchor="middle" x="651" y="-175.8" font-family="Times,serif" font-size="14.00">AppConfigModule</text>
</g>
<!-- AppModule -->
<g id="node6" class="node">
<title>AppModule</title>
<polygon fill="#8dd3c7" stroke="black" points="438.66,-263 435.66,-267 414.66,-267 411.66,-263 355.34,-263 355.34,-227 438.66,-227 438.66,-263"/>
<text text-anchor="middle" x="397" y="-240.8" font-family="Times,serif" font-size="14.00">AppModule</text>
</g>
<!-- AppConfigModule&#45;&gt;AppModule -->
<g id="edge1" class="edge">
<title>AppConfigModule&#45;&gt;AppModule</title>
<path fill="none" stroke="black" d="M651,-198.28C651,-219.32 651,-251 651,-251 651,-251 448.66,-251 448.66,-251"/>
<polygon fill="black" stroke="black" points="448.66,-247.5 438.66,-251 448.66,-254.5 448.66,-247.5"/>
</g>
<!-- DatabaseModule -->
<g id="node2" class="node">
<title>DatabaseModule</title>
<polygon fill="#8dd3c7" stroke="black" points="571.35,-198 568.35,-202 547.35,-202 544.35,-198 460.65,-198 460.65,-162 571.35,-162 571.35,-198"/>
<text text-anchor="middle" x="516" y="-175.8" font-family="Times,serif" font-size="14.00">DatabaseModule</text>
</g>
<!-- DatabaseModule&#45;&gt;AppModule -->
<g id="edge2" class="edge">
<title>DatabaseModule&#45;&gt;AppModule</title>
<path fill="none" stroke="black" d="M516,-198.02C516,-215.37 516,-239 516,-239 516,-239 448.95,-239 448.95,-239"/>
<polygon fill="black" stroke="black" points="448.95,-235.5 438.95,-239 448.95,-242.5 448.95,-235.5"/>
</g>
<!-- TasksModule -->
<g id="node3" class="node">
<title>TasksModule</title>
<polygon fill="#8dd3c7" stroke="black" points="333.21,-198 330.21,-202 309.21,-202 306.21,-198 240.79,-198 240.79,-162 333.21,-162 333.21,-198"/>
<text text-anchor="middle" x="287" y="-175.8" font-family="Times,serif" font-size="14.00">TasksModule</text>
</g>
<!-- TasksModule&#45;&gt;AppModule -->
<g id="edge3" class="edge">
<title>TasksModule&#45;&gt;AppModule</title>
<path fill="none" stroke="black" d="M287,-198.02C287,-215.37 287,-239 287,-239 287,-239 345.1,-239 345.1,-239"/>
<polygon fill="black" stroke="black" points="345.1,-242.5 355.1,-239 345.1,-235.5 345.1,-242.5"/>
</g>
<!-- UsersModule -->
<g id="node4" class="node">
<title>UsersModule</title>
<polygon fill="#8dd3c7" stroke="black" points="442.92,-198 439.92,-202 418.92,-202 415.92,-198 351.08,-198 351.08,-162 442.92,-162 442.92,-198"/>
<text text-anchor="middle" x="397" y="-175.8" font-family="Times,serif" font-size="14.00">UsersModule</text>
</g>
<!-- UsersModule&#45;&gt;AppModule -->
<g id="edge4" class="edge">
<title>UsersModule&#45;&gt;AppModule</title>
<path fill="none" stroke="black" d="M397,-198.11C397,-198.11 397,-216.99 397,-216.99"/>
<polygon fill="black" stroke="black" points="393.5,-216.99 397,-226.99 400.5,-216.99 393.5,-216.99"/>
</g>
<!-- VersioningModule -->
<g id="node5" class="node">
<title>VersioningModule</title>
<polygon fill="#8dd3c7" stroke="black" points="222.76,-198 219.76,-202 198.76,-202 195.76,-198 101.24,-198 101.24,-162 222.76,-162 222.76,-198"/>
<text text-anchor="middle" x="162" y="-175.8" font-family="Times,serif" font-size="14.00">VersioningModule</text>
</g>
<!-- VersioningModule&#45;&gt;AppModule -->
<g id="edge5" class="edge">
<title>VersioningModule&#45;&gt;AppModule</title>
<path fill="none" stroke="black" d="M162,-198.28C162,-219.32 162,-251 162,-251 162,-251 345.26,-251 345.26,-251"/>
<polygon fill="black" stroke="black" points="345.26,-254.5 355.26,-251 345.26,-247.5 345.26,-254.5"/>
</g>
<!-- ReadTodoService -->
<g id="node7" class="node">
<title>ReadTodoService</title>
<ellipse fill="#fdb462" stroke="black" cx="287" cy="-104" rx="80.44" ry="18"/>
<text text-anchor="middle" x="287" y="-99.8" font-family="Times,serif" font-size="14.00">ReadTodoService</text>
</g>
<!-- ReadTodoService&#45;&gt;TasksModule -->
<g id="edge6" class="edge">
<title>ReadTodoService&#45;&gt;TasksModule</title>
<path fill="none" stroke="black" d="M302.37,-122.01C302.37,-122.01 302.37,-151.85 302.37,-151.85"/>
<polygon fill="black" stroke="black" points="298.87,-151.85 302.37,-161.85 305.87,-151.85 298.87,-151.85"/>
</g>
<!-- WriteTodoService -->
<g id="node8" class="node">
<title>WriteTodoService</title>
<ellipse fill="#fdb462" stroke="black" cx="106" cy="-104" rx="82.22" ry="18"/>
<text text-anchor="middle" x="106" y="-99.8" font-family="Times,serif" font-size="14.00">WriteTodoService</text>
</g>
<!-- WriteTodoService&#45;&gt;TasksModule -->
<g id="edge7" class="edge">
<title>WriteTodoService&#45;&gt;TasksModule</title>
<path fill="none" stroke="black" d="M144.74,-119.9C144.74,-130.31 144.74,-142 144.74,-142 144.74,-142 271.63,-142 271.63,-142 271.63,-142 271.63,-151.89 271.63,-151.89"/>
<polygon fill="black" stroke="black" points="268.13,-151.89 271.63,-161.89 275.13,-151.89 268.13,-151.89"/>
</g>
<!-- ReadUsersService -->
<g id="node9" class="node">
<title>ReadUsersService</title>
<ellipse fill="#fdb462" stroke="black" cx="489" cy="-104" rx="81.64" ry="18"/>
<text text-anchor="middle" x="489" y="-99.8" font-family="Times,serif" font-size="14.00">ReadUsersService</text>
</g>
<!-- ReadUsersService&#45;&gt;UsersModule -->
<g id="edge8" class="edge">
<title>ReadUsersService&#45;&gt;UsersModule</title>
<path fill="none" stroke="black" d="M424.95,-115.21C424.95,-115.21 424.95,-151.96 424.95,-151.96"/>
<polygon fill="black" stroke="black" points="421.45,-151.96 424.95,-161.96 428.45,-151.96 421.45,-151.96"/>
</g>
</g>
</svg>
