<?xml version="1.0" encoding="UTF-8" standalone="no"?>
<!DOCTYPE svg PUBLIC "-//W3C//DTD SVG 1.1//EN"
 "http://www.w3.org/Graphics/SVG/1.1/DTD/svg11.dtd">
<!-- Generated by graphviz version 2.47.0 (20210316.0004)
 -->
<!-- Title: dependencies Pages: 1 -->
<svg width="668pt" height="211pt"
 viewBox="0.00 0.00 668.00 211.00" xmlns="http://www.w3.org/2000/svg" xmlns:xlink="http://www.w3.org/1999/xlink">
<g id="graph0" class="graph" transform="scale(1 1) rotate(0) translate(4 207)">
<title>dependencies</title>
<polygon fill="white" stroke="transparent" points="-4,4 -4,-207 664,-207 664,4 -4,4"/>
<text text-anchor="start" x="309.01" y="-42.4" font-family="Times-12" font-weight="bold" font-size="14.00">Legend</text>
<polygon fill="#ffffb3" stroke="transparent" points="96,-10 96,-30 116,-30 116,-10 96,-10"/>
<text text-anchor="start" x="119.63" y="-15.4" font-family="Times-12" font-size="14.00"> &#160;Declarations</text>
<polygon fill="#8dd3c7" stroke="transparent" points="209,-10 209,-30 229,-30 229,-10 209,-10"/>
<text text-anchor="start" x="232.73" y="-15.4" font-family="Times-12" font-size="14.00"> &#160;Module</text>
<polygon fill="#80b1d3" stroke="transparent" points="295,-10 295,-30 315,-30 315,-10 295,-10"/>
<text text-anchor="start" x="318.78" y="-15.4" font-family="Times-12" font-size="14.00"> &#160;Bootstrap</text>
<polygon fill="#fdb462" stroke="transparent" points="392,-10 392,-30 412,-30 412,-10 392,-10"/>
<text text-anchor="start" x="415.67" y="-15.4" font-family="Times-12" font-size="14.00"> &#160;Providers</text>
<polygon fill="#fb8072" stroke="transparent" points="488,-10 488,-30 508,-30 508,-10 488,-10"/>
<text text-anchor="start" x="511.73" y="-15.4" font-family="Times-12" font-size="14.00"> &#160;Exports</text>
<g id="clust1" class="cluster">
<title>cluster_AppModule</title>
<polygon fill="none" stroke="black" stroke-dasharray="1,5" points="8,-70 8,-195 652,-195 652,-70 8,-70"/>
</g>
<g id="clust3" class="cluster">
<title>cluster_AppModule_imports</title>
<polygon fill="none" stroke="black" points="16,-78 16,-130 644,-130 644,-78 16,-78"/>
</g>
<!-- AppConfigModule -->
<g id="node1" class="node">
<title>AppConfigModule</title>
<polygon fill="#8dd3c7" stroke="black" points="636.05,-122 633.05,-126 612.05,-126 609.05,-122 513.95,-122 513.95,-86 636.05,-86 636.05,-122"/>
<text text-anchor="middle" x="575" y="-99.8" font-family="Times,serif" font-size="14.00">AppConfigModule</text>
</g>
<!-- AppModule -->
<g id="node6" class="node">
<title>AppModule</title>
<polygon fill="#8dd3c7" stroke="black" points="361.66,-187 358.66,-191 337.66,-191 334.66,-187 278.34,-187 278.34,-151 361.66,-151 361.66,-187"/>
<text text-anchor="middle" x="320" y="-164.8" font-family="Times,serif" font-size="14.00">AppModule</text>
</g>
<!-- AppConfigModule&#45;&gt;AppModule -->
<g id="edge1" class="edge">
<title>AppConfigModule&#45;&gt;AppModule</title>
<path fill="none" stroke="black" d="M575,-122.28C575,-143.32 575,-175 575,-175 575,-175 371.82,-175 371.82,-175"/>
<polygon fill="black" stroke="black" points="371.82,-171.5 361.82,-175 371.82,-178.5 371.82,-171.5"/>
</g>
<!-- DatabaseModule -->
<g id="node2" class="node">
<title>DatabaseModule</title>
<polygon fill="#8dd3c7" stroke="black" points="495.35,-122 492.35,-126 471.35,-126 468.35,-122 384.65,-122 384.65,-86 495.35,-86 495.35,-122"/>
<text text-anchor="middle" x="440" y="-99.8" font-family="Times,serif" font-size="14.00">DatabaseModule</text>
</g>
<!-- DatabaseModule&#45;&gt;AppModule -->
<g id="edge2" class="edge">
<title>DatabaseModule&#45;&gt;AppModule</title>
<path fill="none" stroke="black" d="M440,-122.02C440,-139.37 440,-163 440,-163 440,-163 371.97,-163 371.97,-163"/>
<polygon fill="black" stroke="black" points="371.97,-159.5 361.97,-163 371.97,-166.5 371.97,-159.5"/>
</g>
<!-- TasksModule -->
<g id="node3" class="node">
<title>TasksModule</title>
<polygon fill="#8dd3c7" stroke="black" points="366.21,-122 363.21,-126 342.21,-126 339.21,-122 273.79,-122 273.79,-86 366.21,-86 366.21,-122"/>
<text text-anchor="middle" x="320" y="-99.8" font-family="Times,serif" font-size="14.00">TasksModule</text>
</g>
<!-- TasksModule&#45;&gt;AppModule -->
<g id="edge3" class="edge">
<title>TasksModule&#45;&gt;AppModule</title>
<path fill="none" stroke="black" d="M320,-122.11C320,-122.11 320,-140.99 320,-140.99"/>
<polygon fill="black" stroke="black" points="316.5,-140.99 320,-150.99 323.5,-140.99 316.5,-140.99"/>
</g>
<!-- UsersModule -->
<g id="node4" class="node">
<title>UsersModule</title>
<polygon fill="#8dd3c7" stroke="black" points="255.92,-122 252.92,-126 231.92,-126 228.92,-122 164.08,-122 164.08,-86 255.92,-86 255.92,-122"/>
<text text-anchor="middle" x="210" y="-99.8" font-family="Times,serif" font-size="14.00">UsersModule</text>
</g>
<!-- UsersModule&#45;&gt;AppModule -->
<g id="edge4" class="edge">
<title>UsersModule&#45;&gt;AppModule</title>
<path fill="none" stroke="black" d="M210,-122.02C210,-139.37 210,-163 210,-163 210,-163 268.1,-163 268.1,-163"/>
<polygon fill="black" stroke="black" points="268.1,-166.5 278.1,-163 268.1,-159.5 268.1,-166.5"/>
</g>
<!-- VersioningModule -->
<g id="node5" class="node">
<title>VersioningModule</title>
<polygon fill="#8dd3c7" stroke="black" points="145.76,-122 142.76,-126 121.76,-126 118.76,-122 24.24,-122 24.24,-86 145.76,-86 145.76,-122"/>
<text text-anchor="middle" x="85" y="-99.8" font-family="Times,serif" font-size="14.00">VersioningModule</text>
</g>
<!-- VersioningModule&#45;&gt;AppModule -->
<g id="edge5" class="edge">
<title>VersioningModule&#45;&gt;AppModule</title>
<path fill="none" stroke="black" d="M85,-122.28C85,-143.32 85,-175 85,-175 85,-175 268.26,-175 268.26,-175"/>
<polygon fill="black" stroke="black" points="268.26,-178.5 278.26,-175 268.26,-171.5 268.26,-178.5"/>
</g>
</g>
</svg>
